<?xml version="1.0" encoding="UTF-8"?>
<svg xmlns="http://www.w3.org/2000/svg" xmlns:xlink="http://www.w3.org/1999/xlink" width="24px" height="19px" viewBox="0 0 23 19" version="1.1">
<g id="surface1">
<path style=" stroke:none;fill-rule:nonzero;fill:rgb(100%,100%,100%);fill-opacity:1;" d="M 18.851562 2.589844 C 18.84375 2.578125 18.835938 2.570312 18.824219 2.566406 C 17.453125 1.917969 16.007812 1.453125 14.523438 1.1875 C 14.492188 1.183594 14.464844 1.195312 14.453125 1.222656 C 14.253906 1.589844 14.078125 1.96875 13.917969 2.359375 C 12.316406 2.105469 10.6875 2.105469 9.085938 2.359375 C 8.925781 1.96875 8.742188 1.589844 8.542969 1.222656 C 8.527344 1.199219 8.5 1.183594 8.472656 1.1875 C 6.988281 1.453125 5.542969 1.914062 4.171875 2.566406 C 4.160156 2.570312 4.148438 2.578125 4.144531 2.589844 C 1.402344 6.816406 0.652344 10.9375 1.023438 15.003906 C 1.023438 15.027344 1.035156 15.042969 1.050781 15.054688 C 2.644531 16.277344 4.429688 17.207031 6.324219 17.808594 C 6.351562 17.816406 6.382812 17.808594 6.398438 17.785156 C 6.808594 17.210938 7.167969 16.605469 7.480469 15.972656 C 7.488281 15.953125 7.488281 15.933594 7.480469 15.914062 C 7.476562 15.898438 7.460938 15.882812 7.441406 15.875 C 6.875 15.652344 6.320312 15.378906 5.792969 15.066406 C 5.773438 15.054688 5.761719 15.03125 5.761719 15.007812 C 5.757812 14.984375 5.769531 14.964844 5.789062 14.949219 C 5.898438 14.863281 6.007812 14.773438 6.113281 14.683594 C 6.132812 14.667969 6.160156 14.664062 6.183594 14.675781 C 9.640625 16.304688 13.386719 16.304688 16.804688 14.675781 C 16.824219 14.664062 16.851562 14.667969 16.871094 14.683594 C 16.976562 14.773438 17.089844 14.863281 17.199219 14.949219 C 17.21875 14.960938 17.226562 14.984375 17.226562 15.007812 C 17.226562 15.03125 17.214844 15.054688 17.195312 15.066406 C 16.667969 15.382812 16.117188 15.652344 15.546875 15.875 C 15.527344 15.882812 15.511719 15.898438 15.507812 15.914062 C 15.5 15.933594 15.5 15.953125 15.507812 15.972656 C 15.824219 16.601562 16.1875 17.207031 16.585938 17.785156 C 16.605469 17.808594 16.632812 17.816406 16.660156 17.808594 C 18.5625 17.207031 20.351562 16.277344 21.945312 15.054688 C 21.960938 15.042969 21.972656 15.027344 21.972656 15.007812 C 22.414062 10.300781 21.238281 6.214844 18.851562 2.589844 Z M 7.996094 12.527344 C 6.953125 12.527344 6.097656 11.539062 6.097656 10.328125 C 6.097656 9.117188 6.9375 8.128906 7.996094 8.128906 C 9.0625 8.128906 9.910156 9.125 9.894531 10.328125 C 9.894531 11.539062 9.054688 12.527344 7.996094 12.527344 Z M 15.015625 12.527344 C 13.976562 12.527344 13.117188 11.539062 13.117188 10.328125 C 13.117188 9.117188 13.960938 8.128906 15.015625 8.128906 C 16.082031 8.128906 16.933594 9.125 16.917969 10.328125 C 16.917969 11.539062 16.082031 12.527344 15.015625 12.527344 Z M 15.015625 12.527344 "/>
</g>
</svg>
